<svg id="svg" version="1.1" xmlns="http://www.w3.org/2000/svg" xmlns:xlink="http://www.w3.org/1999/xlink" width="400" height="78.10218978102189" viewBox="0, 0, 400,78.10218978102189"><g id="svgg"><path id="path0" d="M6.706 6.673 L 6.328 6.825 6.372 11.285 C 6.424 16.468,6.400 16.409,7.873 14.925 L 8.790 14.000 10.885 14.000 C 12.037 14.000,13.014 14.056,13.055 14.125 C 13.234 14.423,13.363 63.426,13.187 63.833 C 13.087 64.063,12.595 64.828,12.092 65.535 C 11.440 66.451,11.236 66.858,11.380 66.952 C 11.773 67.207,22.214 67.209,22.561 66.954 C 22.891 66.712,22.567 65.667,22.162 65.667 C 22.073 65.667,21.999 65.573,21.997 65.458 C 21.995 65.344,21.766 64.913,21.487 64.502 L 20.980 63.754 21.084 39.252 C 21.140 25.776,21.221 14.581,21.263 14.375 C 21.338 14.010,21.395 14.000,23.453 14.000 L 25.567 14.000 26.520 14.980 C 27.203 15.682,27.524 15.909,27.653 15.780 C 27.920 15.514,27.901 6.968,27.633 6.700 C 27.389 6.455,7.312 6.429,6.706 6.673 M54.238 10.907 C 54.181 11.131,54.219 11.412,54.321 11.532 C 54.701 11.980,55.331 12.930,55.498 13.308 C 55.616 13.575,55.657 21.144,55.627 36.978 L 55.583 60.255 54.778 61.314 C 54.306 61.935,54.034 62.434,54.122 62.522 C 54.206 62.606,57.387 62.651,61.427 62.627 L 68.583 62.583 68.634 62.167 C 68.662 61.938,68.824 61.300,68.995 60.750 C 69.165 60.200,69.352 59.234,69.409 58.603 C 69.467 57.973,69.616 57.259,69.741 57.018 C 70.652 55.256,70.080 54.235,68.835 55.399 L 68.005 56.175 65.378 56.129 L 62.750 56.083 62.605 34.922 C 62.449 12.256,62.421 13.191,63.275 12.068 C 63.490 11.784,63.667 11.405,63.667 11.226 C 63.667 11.047,63.757 10.810,63.867 10.700 C 64.022 10.544,62.986 10.500,59.203 10.500 L 54.340 10.500 54.238 10.907 M72.422 10.955 C 72.349 11.244,72.413 11.488,72.625 11.730 C 72.795 11.924,73.136 12.387,73.383 12.759 L 73.833 13.435 73.826 21.592 C 73.820 28.496,73.780 29.853,73.564 30.417 C 73.424 30.783,73.202 31.421,73.071 31.833 C 72.939 32.246,72.730 32.808,72.605 33.083 C 71.484 35.552,71.497 36.236,72.663 36.302 C 73.165 36.330,73.633 36.443,73.702 36.552 C 73.771 36.661,73.829 42.004,73.831 48.425 L 73.833 60.100 73.083 61.131 C 71.861 62.810,71.215 62.676,80.292 62.627 L 88.250 62.583 88.295 58.731 C 88.348 54.146,88.322 54.075,87.078 55.338 L 86.263 56.167 83.728 56.167 C 82.334 56.167,81.075 56.121,80.930 56.066 C 80.493 55.898,80.533 36.839,80.971 36.442 C 81.224 36.214,81.667 36.167,83.541 36.167 L 85.805 36.167 86.221 35.422 C 86.450 35.012,86.728 34.393,86.839 34.047 C 86.950 33.700,87.181 33.183,87.354 32.897 C 87.526 32.611,87.667 32.245,87.667 32.083 C 87.667 31.922,87.821 31.539,88.010 31.233 C 88.239 30.864,88.337 30.466,88.302 30.047 L 88.250 29.417 84.667 29.333 C 82.696 29.287,80.990 29.189,80.875 29.115 C 80.502 28.874,80.581 17.795,80.958 17.457 C 81.188 17.251,81.747 17.185,83.583 17.147 C 86.204 17.094,86.370 17.141,87.384 18.228 C 87.899 18.781,88.047 18.862,88.173 18.662 C 88.355 18.374,88.386 11.170,88.206 10.899 C 88.121 10.771,85.714 10.687,80.306 10.624 L 72.528 10.533 72.422 10.955 M127.337 10.722 C 127.343 11.028,127.953 12.186,128.495 12.917 L 128.989 13.583 128.994 21.592 C 128.998 26.391,128.937 29.663,128.843 29.758 C 128.756 29.845,128.609 30.217,128.516 30.583 C 128.285 31.489,127.498 33.711,127.335 33.917 C 127.168 34.126,126.638 36.193,126.727 36.283 C 126.764 36.319,127.121 36.373,127.522 36.402 C 128.865 36.500,128.768 36.152,128.890 41.299 C 128.950 43.839,128.999 48.976,129.000 52.715 C 129.000 60.332,129.051 59.981,127.712 61.618 C 127.396 62.004,127.187 62.397,127.246 62.493 C 127.473 62.861,137.167 62.718,137.167 62.347 C 137.167 62.172,137.110 62.003,137.042 61.972 C 136.973 61.942,136.654 61.542,136.333 61.083 L 135.750 60.250 135.750 48.467 C 135.750 40.566,135.807 36.626,135.923 36.511 C 136.017 36.416,137.105 36.290,138.339 36.231 C 140.843 36.112,141.359 35.880,141.593 34.768 C 141.653 34.483,141.845 34.016,142.018 33.730 C 142.191 33.445,142.333 33.112,142.333 32.991 C 142.333 32.871,142.473 32.467,142.644 32.094 C 143.056 31.195,143.581 29.792,143.582 29.583 C 143.583 29.479,142.140 29.385,139.750 29.333 L 135.917 29.250 135.917 23.250 L 135.917 17.250 138.167 17.167 C 140.744 17.071,141.251 17.172,142.175 17.963 C 143.271 18.901,143.333 18.729,143.333 14.748 C 143.333 11.770,143.299 11.331,143.042 11.035 C 142.689 10.629,127.330 10.323,127.337 10.722 M146.165 10.639 C 145.850 10.745,146.001 11.643,146.417 12.136 C 146.646 12.409,146.833 12.705,146.833 12.795 C 146.833 12.885,146.946 13.053,147.083 13.167 C 147.303 13.349,147.333 16.167,147.333 36.681 L 147.333 59.988 146.828 60.702 C 145.326 62.825,145.016 62.667,150.667 62.667 C 156.107 62.667,155.941 62.728,154.811 61.120 L 154.083 60.083 154.038 48.478 C 153.994 37.105,154.057 35.449,154.501 36.169 C 154.583 36.301,154.700 36.705,154.761 37.066 C 154.822 37.427,155.013 37.953,155.185 38.236 C 155.358 38.519,155.499 38.982,155.499 39.266 C 155.500 39.550,155.650 39.955,155.833 40.167 C 156.017 40.378,156.167 40.746,156.168 40.984 C 156.169 41.222,156.354 41.792,156.580 42.250 C 156.805 42.708,156.994 43.271,156.998 43.500 C 157.003 43.729,157.154 44.104,157.333 44.333 C 157.513 44.563,157.662 44.938,157.664 45.167 C 157.667 45.396,157.854 45.958,158.080 46.417 C 158.305 46.875,158.492 47.440,158.495 47.671 C 158.498 47.903,158.617 48.259,158.759 48.463 C 158.902 48.667,159.121 49.189,159.246 49.625 C 159.597 50.849,160.010 52.017,160.353 52.761 C 160.526 53.134,160.669 53.546,160.672 53.678 C 160.675 53.809,160.823 54.217,161.000 54.583 C 161.177 54.950,161.325 55.349,161.328 55.469 C 161.331 55.590,161.474 56.040,161.646 56.469 C 162.738 59.195,162.887 59.714,162.983 61.121 L 163.083 62.583 167.155 62.628 C 171.925 62.680,171.870 62.702,170.517 61.310 C 169.391 60.152,168.901 59.342,168.569 58.083 C 168.191 56.657,167.699 54.949,167.440 54.167 C 167.303 53.754,167.039 52.892,166.852 52.250 C 166.665 51.608,166.393 50.708,166.247 50.250 C 165.936 49.273,165.441 47.563,165.162 46.500 C 165.054 46.087,164.827 45.375,164.658 44.917 C 164.489 44.458,164.300 43.783,164.237 43.417 C 164.174 43.050,164.065 42.675,163.993 42.583 C 163.922 42.492,163.742 41.929,163.593 41.333 C 163.445 40.737,163.218 39.987,163.089 39.667 C 162.961 39.346,162.811 38.810,162.757 38.475 C 162.702 38.141,162.553 37.653,162.425 37.392 C 161.752 36.017,161.864 35.499,163.151 34.040 C 163.801 33.304,164.333 32.630,164.333 32.543 C 164.333 32.456,164.483 32.249,164.667 32.083 C 164.850 31.917,165.000 31.686,165.000 31.569 C 165.000 31.453,165.114 31.243,165.253 31.104 C 165.577 30.780,166.500 28.836,166.500 28.477 C 166.500 28.326,166.648 27.876,166.830 27.477 C 167.011 27.077,167.162 26.412,167.164 26.000 C 167.167 25.587,167.249 24.762,167.345 24.167 C 167.521 23.086,167.318 20.215,166.992 19.183 C 165.332 13.916,162.331 11.278,157.500 10.838 C 155.719 10.676,146.535 10.515,146.165 10.639 M202.390 10.962 C 202.301 11.317,202.824 12.300,203.458 12.970 C 203.623 13.144,203.667 18.131,203.667 36.750 C 203.667 55.367,203.623 60.357,203.458 60.534 C 202.952 61.079,202.168 62.368,202.256 62.510 C 202.380 62.711,211.500 62.714,211.817 62.514 C 212.068 62.355,212.021 62.257,210.917 60.646 L 210.417 59.917 210.364 52.833 C 210.309 45.590,210.432 41.304,210.677 41.917 C 210.750 42.100,210.815 42.502,210.822 42.809 C 210.829 43.149,210.997 43.563,211.250 43.864 C 211.588 44.265,211.667 44.539,211.667 45.307 C 211.667 45.937,211.779 46.464,212.000 46.877 C 212.211 47.271,212.334 47.820,212.335 48.374 C 212.336 48.965,212.470 49.521,212.746 50.083 C 213.007 50.613,213.160 51.220,213.167 51.750 C 213.173 52.211,213.322 52.881,213.500 53.250 C 213.681 53.625,213.825 54.282,213.829 54.750 C 213.834 55.275,213.990 55.913,214.252 56.475 C 214.516 57.043,214.667 57.663,214.667 58.184 C 214.667 58.683,214.797 59.243,215.000 59.623 C 215.207 60.010,215.333 60.563,215.333 61.087 C 215.333 61.577,215.462 62.182,215.641 62.533 C 215.811 62.865,215.996 63.640,216.053 64.254 C 216.111 64.869,216.236 65.466,216.331 65.581 C 216.427 65.696,216.621 66.180,216.762 66.656 C 217.102 67.801,217.389 67.667,217.526 66.301 C 217.586 65.702,217.749 64.991,217.889 64.720 C 218.029 64.450,218.196 63.746,218.261 63.156 C 218.325 62.566,218.518 61.805,218.689 61.465 C 218.871 61.104,219.000 60.494,219.000 60.000 C 219.000 59.471,219.130 58.898,219.348 58.472 C 219.539 58.097,219.732 57.369,219.778 56.854 C 219.823 56.338,220.005 55.565,220.180 55.136 C 220.356 54.706,220.500 53.977,220.500 53.515 C 220.500 52.969,220.616 52.484,220.833 52.129 C 221.046 51.780,221.167 51.283,221.170 50.750 C 221.172 50.276,221.321 49.594,221.514 49.168 C 221.701 48.756,221.898 47.943,221.952 47.361 C 222.007 46.780,222.189 46.032,222.359 45.700 C 222.539 45.347,222.667 44.744,222.667 44.247 C 222.667 43.246,223.078 42.453,223.226 43.167 C 223.343 43.728,223.500 50.777,223.511 55.951 C 223.520 60.486,223.533 60.408,222.551 61.624 C 222.236 62.013,222.026 62.407,222.083 62.499 C 222.223 62.727,231.776 62.728,231.917 62.500 C 231.973 62.409,231.603 61.801,231.093 61.150 L 230.167 59.966 230.167 37.030 C 230.167 11.954,230.118 13.247,231.100 12.167 C 231.458 11.773,231.833 10.999,231.833 10.656 C 231.833 10.476,228.996 10.448,227.090 10.609 L 225.796 10.719 225.315 11.792 C 225.050 12.382,224.833 13.010,224.833 13.189 C 224.833 13.367,224.683 13.807,224.500 14.167 C 224.317 14.526,224.167 14.975,224.167 15.165 C 224.167 15.355,223.979 15.956,223.750 16.500 C 223.521 17.044,223.333 17.625,223.333 17.789 C 223.333 17.954,223.194 18.350,223.024 18.669 C 222.855 18.989,222.661 19.550,222.595 19.917 C 222.529 20.283,222.370 20.747,222.242 20.947 C 222.113 21.146,221.956 21.634,221.893 22.030 C 221.829 22.426,221.640 22.975,221.473 23.250 C 221.305 23.525,221.168 23.939,221.167 24.169 C 221.167 24.400,221.027 24.850,220.857 25.169 C 220.687 25.489,220.496 26.100,220.432 26.528 C 220.369 26.956,220.216 27.390,220.093 27.492 C 219.970 27.594,219.822 27.996,219.763 28.386 C 219.705 28.775,219.509 29.337,219.329 29.634 C 219.148 29.932,219.000 30.408,219.000 30.693 C 219.000 30.978,218.859 31.445,218.687 31.730 C 218.515 32.016,218.322 32.550,218.258 32.917 C 218.194 33.283,218.019 33.771,217.869 34.000 C 217.719 34.229,217.555 34.748,217.506 35.153 C 217.390 36.106,217.110 36.184,216.778 35.354 C 216.633 34.992,216.440 34.649,216.350 34.594 C 216.260 34.538,216.135 34.155,216.074 33.743 C 216.012 33.332,215.820 32.718,215.647 32.379 C 215.475 32.040,215.333 31.572,215.332 31.340 C 215.332 31.107,215.182 30.692,215.000 30.417 C 214.818 30.142,214.668 29.729,214.666 29.500 C 214.665 29.271,214.477 28.682,214.248 28.192 C 214.020 27.701,213.833 27.155,213.833 26.977 C 213.833 26.799,213.683 26.359,213.500 26.000 C 213.317 25.641,213.164 25.175,213.161 24.965 C 213.159 24.755,212.972 24.208,212.746 23.750 C 212.521 23.292,212.336 22.748,212.335 22.541 C 212.334 22.334,212.183 21.886,212.000 21.544 C 211.817 21.201,211.667 20.749,211.667 20.537 C 211.667 20.326,211.526 19.875,211.354 19.535 C 211.182 19.195,210.987 18.654,210.921 18.333 C 210.855 18.012,210.707 17.600,210.592 17.417 C 210.477 17.233,210.329 16.787,210.261 16.424 C 210.194 16.062,209.995 15.484,209.819 15.139 C 209.644 14.795,209.500 14.393,209.500 14.246 C 209.500 14.099,209.359 13.627,209.186 13.198 C 209.013 12.768,208.787 12.107,208.685 11.728 C 208.432 10.795,208.101 10.695,205.035 10.633 C 202.499 10.581,202.486 10.583,202.390 10.962 M272.659 10.974 C 272.734 11.234,273.104 11.900,273.481 12.452 L 274.167 13.457 274.167 21.489 C 274.167 29.886,274.145 30.182,273.412 31.750 C 273.283 32.025,273.129 32.475,273.069 32.750 C 273.010 33.025,272.831 33.550,272.672 33.917 C 271.796 35.939,271.786 36.319,272.610 36.355 C 272.870 36.367,273.327 36.447,273.625 36.534 L 274.167 36.693 274.167 48.352 C 274.167 60.866,274.207 60.212,273.384 61.167 C 272.679 61.984,272.356 62.467,272.449 62.560 C 272.634 62.745,282.303 62.684,282.419 62.497 C 282.477 62.403,282.350 62.104,282.137 61.833 C 281.924 61.561,281.563 61.096,281.333 60.800 L 280.917 60.261 280.976 48.506 C 281.014 40.867,281.094 36.677,281.205 36.542 C 281.438 36.255,285.681 36.248,285.967 36.533 C 286.118 36.685,286.167 39.548,286.167 48.399 L 286.167 60.065 285.717 60.741 C 285.469 61.113,285.122 61.582,284.946 61.783 C 284.209 62.624,284.427 62.667,289.485 62.667 C 294.985 62.667,294.874 62.719,293.353 60.838 L 292.750 60.092 292.706 36.773 L 292.662 13.454 293.081 12.905 C 293.311 12.603,293.500 12.292,293.500 12.215 C 293.500 12.137,293.650 11.946,293.833 11.789 C 294.208 11.467,294.266 10.999,293.967 10.700 C 293.821 10.555,292.569 10.500,289.379 10.500 L 284.992 10.500 284.828 10.931 C 284.662 11.368,284.701 11.510,285.119 11.984 C 285.248 12.130,285.537 12.535,285.760 12.882 L 286.167 13.515 286.167 21.224 C 286.167 26.998,286.116 28.984,285.967 29.133 C 285.681 29.419,281.438 29.411,281.202 29.125 C 281.091 28.990,281.012 26.141,280.978 21.072 L 280.927 13.228 281.547 12.294 C 281.888 11.780,282.167 11.167,282.167 10.930 L 282.167 10.500 277.345 10.500 L 272.523 10.500 272.659 10.974 M296.759 10.932 C 296.820 11.198,297.067 11.717,297.307 12.083 C 298.378 13.719,298.333 13.304,298.333 21.690 C 298.333 30.250,298.334 30.248,296.637 33.954 C 296.424 34.418,296.332 34.928,296.366 35.454 L 296.417 36.250 297.167 36.338 C 297.579 36.386,298.010 36.484,298.125 36.556 C 298.288 36.658,298.333 39.195,298.333 48.326 L 298.333 59.967 297.683 60.858 C 297.325 61.349,296.910 61.884,296.760 62.048 C 296.610 62.212,296.533 62.418,296.587 62.506 C 296.704 62.695,312.149 62.727,312.437 62.539 C 312.563 62.457,312.645 61.190,312.687 58.667 L 312.750 54.917 312.361 54.862 C 312.074 54.821,311.817 54.987,311.386 55.491 L 310.801 56.175 308.025 56.129 L 305.250 56.083 305.250 46.167 L 305.250 36.250 307.583 36.167 C 310.331 36.069,310.504 35.991,310.997 34.638 C 311.190 34.110,311.419 33.633,311.507 33.579 C 311.595 33.525,311.667 33.370,311.667 33.235 C 311.667 33.100,311.790 32.710,311.940 32.370 C 312.520 31.053,312.988 29.588,312.867 29.467 C 312.797 29.397,311.055 29.320,308.995 29.295 L 305.250 29.250 305.250 23.250 L 305.250 17.250 307.500 17.167 C 310.001 17.074,310.472 17.158,311.365 17.854 C 311.704 18.118,312.129 18.333,312.310 18.333 C 312.491 18.333,312.681 18.427,312.733 18.542 C 312.784 18.656,312.809 17.038,312.788 14.945 C 312.739 10.150,313.388 10.667,307.412 10.667 C 304.831 10.667,301.354 10.617,299.684 10.557 L 296.647 10.447 296.759 10.932 M332.610 11.000 C 332.708 11.425,332.896 11.763,333.711 12.979 L 334.171 13.667 334.127 36.813 L 334.083 59.960 333.427 60.938 C 333.066 61.476,332.654 62.013,332.511 62.132 C 332.282 62.321,332.281 62.365,332.501 62.504 C 332.858 62.730,342.116 62.717,342.256 62.490 C 342.363 62.317,341.749 61.276,341.108 60.546 C 340.770 60.160,340.810 35.803,341.150 35.454 C 341.219 35.382,341.607 35.739,342.011 36.245 C 342.416 36.752,342.798 37.167,342.862 37.167 C 342.926 37.167,343.023 37.310,343.079 37.486 C 343.253 38.034,344.087 38.209,344.714 37.828 C 345.009 37.649,345.363 37.453,345.500 37.392 C 348.837 35.907,352.384 32.120,353.539 28.807 L 354.082 27.250 354.076 23.667 L 354.070 20.083 353.553 18.667 C 353.269 17.887,352.916 17.025,352.769 16.750 C 352.622 16.475,352.502 16.156,352.501 16.042 C 352.500 15.927,352.439 15.833,352.364 15.833 C 352.289 15.833,352.063 15.540,351.862 15.182 C 351.242 14.079,348.450 11.667,347.793 11.667 C 347.675 11.667,347.305 11.520,346.970 11.341 C 346.132 10.891,343.245 10.678,337.299 10.625 L 332.514 10.583 332.610 11.000 M356.500 10.840 C 356.500 11.028,356.803 11.647,357.173 12.215 C 357.543 12.784,357.883 13.400,357.928 13.583 C 357.973 13.767,357.988 24.352,357.963 37.106 L 357.917 60.295 357.111 61.333 C 356.631 61.950,356.365 62.432,356.455 62.521 C 356.539 62.606,358.749 62.652,361.509 62.628 C 367.147 62.577,366.999 62.629,365.675 61.167 L 364.845 60.250 364.841 36.833 C 364.839 18.548,364.883 13.338,365.044 13.060 C 365.157 12.863,365.490 12.368,365.783 11.960 C 366.837 10.488,366.874 10.500,361.314 10.500 C 356.577 10.500,356.500 10.505,356.500 10.840 M37.600 10.850 C 35.222 11.101,32.868 12.417,32.319 13.803 C 32.235 14.016,32.165 17.622,32.163 21.886 C 32.160 29.043,32.137 29.631,31.848 30.269 C 31.676 30.647,31.481 31.209,31.414 31.519 C 31.347 31.830,31.152 32.362,30.980 32.702 C 30.808 33.042,30.667 33.455,30.667 33.621 C 30.667 33.786,30.517 34.201,30.333 34.544 C 29.626 35.863,29.922 36.546,31.130 36.384 C 32.220 36.238,32.178 35.729,32.128 48.537 L 32.083 60.083 31.536 60.833 C 30.090 62.815,29.775 62.667,35.427 62.667 L 40.167 62.667 40.167 62.272 C 40.167 62.055,39.848 61.477,39.458 60.987 L 38.750 60.098 38.704 48.546 C 38.672 40.632,38.714 36.890,38.835 36.664 C 39.057 36.248,43.181 36.165,43.708 36.565 C 43.981 36.773,44.000 37.539,44.000 48.475 L 44.000 60.163 43.381 61.081 C 43.041 61.587,42.704 62.000,42.631 62.000 C 42.559 62.000,42.500 62.150,42.500 62.333 C 42.500 62.659,42.610 62.667,47.292 62.664 C 52.296 62.661,52.747 62.608,52.171 62.087 C 51.985 61.919,51.833 61.719,51.833 61.642 C 51.833 61.566,51.571 61.159,51.250 60.739 L 50.667 59.974 50.667 37.478 C 50.667 11.551,50.835 13.974,48.916 12.222 C 47.487 10.916,42.595 10.323,37.600 10.850 M94.417 10.750 C 94.325 10.781,93.959 10.855,93.602 10.915 C 92.805 11.049,91.592 12.239,91.317 13.156 C 90.986 14.259,91.210 19.393,91.640 20.568 C 91.838 21.109,91.999 21.709,91.998 21.901 C 91.996 22.093,92.140 22.738,92.316 23.333 C 92.639 24.423,92.790 25.008,93.262 27.000 C 93.403 27.596,93.654 28.571,93.820 29.167 C 94.353 31.081,94.678 32.391,94.894 33.500 C 95.011 34.096,95.185 34.733,95.282 34.917 C 95.378 35.100,95.511 35.625,95.577 36.083 C 95.643 36.542,95.840 37.327,96.015 37.828 C 96.190 38.329,96.333 38.945,96.333 39.196 C 96.333 39.448,96.473 40.013,96.643 40.452 C 96.814 40.891,97.002 41.625,97.060 42.083 C 97.119 42.542,97.317 43.311,97.500 43.794 C 97.683 44.276,97.833 44.892,97.833 45.162 C 97.833 45.433,97.974 46.013,98.146 46.452 C 98.318 46.891,98.511 47.587,98.575 48.000 C 98.639 48.413,98.835 49.182,99.012 49.709 C 99.189 50.236,99.334 50.911,99.334 51.209 C 99.335 51.507,99.447 51.965,99.584 52.227 C 99.721 52.489,99.907 53.170,99.998 53.740 C 100.089 54.309,100.249 55.019,100.353 55.317 C 100.642 56.148,100.520 56.178,96.592 56.215 L 92.965 56.250 92.323 55.528 C 91.828 54.972,91.603 54.831,91.340 54.914 C 90.929 55.045,90.798 62.065,91.200 62.467 C 91.632 62.898,105.293 62.736,105.951 62.292 C 107.142 61.488,107.602 57.415,106.829 54.511 C 106.648 53.830,106.500 53.139,106.500 52.975 C 106.500 52.812,106.394 52.432,106.265 52.131 C 106.035 51.595,105.450 49.326,105.157 47.833 C 105.076 47.421,104.900 46.708,104.765 46.250 C 104.631 45.792,104.335 44.667,104.108 43.750 C 103.881 42.833,103.608 41.746,103.502 41.333 C 103.395 40.921,103.227 40.208,103.129 39.750 C 103.032 39.292,102.775 38.332,102.559 37.616 C 102.343 36.901,102.167 36.129,102.167 35.900 C 102.167 35.671,102.057 35.272,101.923 35.013 C 101.789 34.754,101.599 34.036,101.500 33.417 C 101.401 32.798,101.221 32.095,101.100 31.854 C 100.979 31.613,100.830 30.979,100.770 30.444 C 100.710 29.909,100.559 29.272,100.435 29.027 C 100.311 28.783,100.119 28.060,100.010 27.420 C 99.900 26.780,99.735 26.166,99.644 26.056 C 99.553 25.946,99.408 25.359,99.322 24.752 C 99.236 24.144,99.053 23.431,98.916 23.165 C 98.779 22.900,98.667 22.448,98.667 22.161 C 98.667 21.874,98.487 21.102,98.267 20.445 C 97.176 17.186,97.177 17.185,101.737 17.150 L 105.391 17.122 106.196 17.966 C 106.924 18.729,107.017 18.780,107.167 18.499 C 107.417 18.033,107.386 11.119,107.133 10.867 C 106.950 10.684,94.937 10.573,94.417 10.750 M251.339 10.989 C 251.118 11.402,251.104 18.775,251.325 18.911 C 251.411 18.965,251.805 18.688,252.200 18.296 C 253.365 17.138,253.670 17.000,255.067 17.000 C 256.331 17.000,257.142 17.194,257.369 17.552 C 257.438 17.661,257.496 27.207,257.497 38.767 L 257.500 59.783 256.958 60.499 C 256.660 60.892,256.341 61.341,256.249 61.495 C 256.157 61.650,255.950 61.907,255.789 62.068 C 255.241 62.616,255.644 62.667,260.583 62.667 C 265.669 62.667,265.980 62.623,265.406 61.988 C 265.245 61.810,265.031 61.525,264.931 61.354 C 264.832 61.184,264.600 60.831,264.417 60.570 C 264.009 59.990,263.978 17.788,264.384 17.387 C 264.610 17.165,267.180 17.054,267.850 17.238 C 268.088 17.303,268.608 17.724,269.006 18.173 C 270.141 19.455,270.194 19.301,270.077 15.018 C 270.023 13.037,269.945 11.248,269.903 11.042 L 269.827 10.667 260.669 10.667 C 251.786 10.667,251.507 10.676,251.339 10.989 M368.768 10.930 C 368.589 11.397,368.653 18.638,368.837 18.752 C 368.930 18.810,369.368 18.483,369.810 18.025 C 370.728 17.071,371.196 16.926,373.019 17.029 C 373.914 17.080,374.257 17.170,374.422 17.396 C 374.676 17.743,374.866 59.076,374.618 59.833 C 374.468 60.290,373.782 61.375,373.283 61.946 C 372.686 62.628,372.942 62.667,378.000 62.667 C 383.593 62.667,383.520 62.698,381.967 60.942 C 381.131 59.998,381.167 60.855,381.167 41.475 C 381.168 23.719,381.253 17.900,381.520 17.468 C 381.994 16.700,386.167 17.203,386.167 18.028 C 386.167 18.110,386.298 18.224,386.458 18.281 C 386.619 18.337,386.881 18.497,387.042 18.634 C 387.318 18.872,387.333 18.686,387.333 15.035 C 387.333 11.246,387.328 11.181,386.963 10.926 C 386.396 10.529,368.920 10.533,368.768 10.930 M184.625 10.942 C 183.014 11.223,180.761 12.824,179.032 14.917 C 178.426 15.650,177.833 16.350,177.713 16.472 C 176.683 17.527,174.251 22.817,173.754 25.083 C 173.634 25.633,173.449 26.314,173.345 26.595 C 173.241 26.876,173.052 27.739,172.927 28.512 C 172.801 29.284,172.618 30.217,172.520 30.583 C 172.298 31.412,172.291 39.420,172.511 40.583 C 172.597 41.042,172.782 42.242,172.920 43.250 C 173.059 44.258,173.278 45.383,173.407 45.750 C 173.536 46.117,173.690 46.792,173.748 47.250 C 173.806 47.708,174.115 48.833,174.434 49.750 C 174.753 50.667,175.088 51.717,175.179 52.083 C 175.355 52.789,176.593 55.488,177.375 56.868 C 177.596 57.258,178.422 58.393,179.455 59.727 C 182.839 64.095,189.406 63.821,192.334 59.189 C 192.576 58.808,193.276 57.872,193.743 57.306 C 193.948 57.058,195.233 54.701,196.000 53.167 C 196.478 52.209,197.674 49.145,197.918 48.250 C 198.043 47.792,198.266 46.967,198.414 46.417 C 198.562 45.867,198.788 45.079,198.916 44.667 C 199.045 44.254,199.197 43.392,199.256 42.750 C 199.314 42.108,199.481 41.171,199.628 40.667 C 200.021 39.308,200.027 32.742,199.636 31.000 C 199.482 30.313,199.306 29.169,199.247 28.459 C 199.187 27.750,199.077 27.131,199.001 27.084 C 198.925 27.037,198.774 26.472,198.666 25.828 C 198.489 24.781,198.236 23.983,197.164 21.083 C 196.868 20.283,196.394 19.342,195.568 17.917 C 195.355 17.550,195.085 17.063,194.968 16.833 C 194.850 16.604,194.678 16.336,194.585 16.238 C 194.493 16.139,194.229 15.802,194.000 15.488 C 191.653 12.276,187.771 10.394,184.625 10.942 M43.854 17.417 C 44.079 18.472,44.003 28.732,43.768 29.042 C 43.407 29.517,39.089 29.477,38.831 28.996 C 38.617 28.595,38.670 17.374,38.888 17.037 C 38.991 16.877,39.612 16.836,41.386 16.871 L 43.747 16.917 43.854 17.417 M157.844 17.666 C 159.377 18.351,160.225 19.354,160.665 21.000 C 160.776 21.412,160.952 21.855,161.057 21.983 C 161.753 22.831,161.082 27.952,160.059 29.598 C 159.606 30.327,158.770 31.333,158.618 31.333 C 158.546 31.333,158.275 31.490,158.016 31.681 C 157.441 32.106,155.116 32.330,154.530 32.016 L 154.167 31.822 154.167 24.739 L 154.167 17.656 154.542 17.494 C 154.999 17.296,157.283 17.416,157.844 17.666 M344.012 17.502 C 345.575 17.799,347.025 19.389,347.506 21.333 C 348.235 24.281,348.252 24.528,347.841 26.194 C 346.826 30.306,345.221 32.075,342.501 32.081 L 341.083 32.083 341.037 25.083 C 341.012 21.233,341.032 17.915,341.082 17.708 C 341.187 17.274,342.369 17.191,344.012 17.502 M187.250 19.010 C 188.572 19.993,189.991 21.710,190.605 23.067 C 190.733 23.351,190.903 23.696,190.982 23.833 C 191.474 24.693,191.939 26.137,192.482 28.500 C 193.383 32.413,193.381 39.534,192.480 43.500 C 192.386 43.913,192.229 44.625,192.131 45.083 C 192.033 45.542,191.728 46.479,191.454 47.167 C 191.179 47.854,190.823 48.792,190.661 49.250 C 190.500 49.708,190.154 50.445,189.892 50.887 C 189.631 51.329,189.333 51.839,189.230 52.021 C 187.186 55.639,184.859 55.679,182.295 52.140 C 182.041 51.790,181.833 51.437,181.833 51.357 C 181.833 51.277,181.700 51.033,181.536 50.814 C 180.977 50.065,179.921 47.153,179.580 45.417 C 179.453 44.775,179.271 43.987,179.174 43.667 C 179.078 43.346,178.925 42.071,178.836 40.833 C 178.746 39.596,178.630 38.171,178.577 37.667 C 178.447 36.426,178.940 29.878,179.225 29.067 C 179.350 28.709,179.506 28.042,179.571 27.583 C 179.716 26.563,180.661 24.028,181.373 22.750 C 181.476 22.567,181.657 22.229,181.776 22.000 C 182.241 21.106,183.647 19.551,184.564 18.916 C 185.806 18.056,185.975 18.062,187.250 19.010 " stroke="none" fill="#ffffff" fill-rule="evenodd"></path></g></svg>