<svg aria-hidden="true" focusable="false" data-prefix="fas" data-icon="bullseye" class="svg-inline--fa fa-bullseye fa-w-16" role="img" xmlns="http://www.w3.org/2000/svg" viewBox="0 0 496 512"><path fill="currentColor" d="m248,86c-136.97,0 -248,75.43772 -248,168.49999s111.03,168.49999 248,168.49999s248,-75.43772 248,-168.49999s-111.03,-168.49999 -248,-168.49999zm0,293.51612c-101.69,0 -184,-55.91074 -184,-125.01612c0,-69.09179 82.29,-125.01612 184,-125.01612c101.69,0 184,55.91074 184,125.01612c0,69.09179 -82.29,125.01612 -184,125.01612zm0,-211.98386c-70.69,0 -128,38.93845 -128,86.96774s57.31,86.96774 128,86.96774s128,-38.93845 128,-86.96774s-57.31,-86.96774 -128,-86.96774zm0,130.45161c-35.29,0 -64,-19.50659 -64,-43.48387s28.71,-43.48387 64,-43.48387s64,19.50659 64,43.48387s-28.71,43.48387 -64,43.48387z" ></path></svg>