<?xml version="1.0" encoding="utf-8"?>
<svg version="1.0" width="512.000000pt" height="512.000000pt" viewBox="0 0 512.000000 512.000000" preserveAspectRatio="xMidYMid meet" xmlns="http://www.w3.org/2000/svg">
  <polygon style="stroke: rgb(0, 0, 0); fill: rgb(148, 42, 42); stroke-width: 14px; stroke-linejoin: round;" points="44.733 275.366 156.393 227.252 121.594 166.732 180.903 174.902 184.837 73.229 246.265 150.392 315.258 80.491 314.047 164.009 360.951 147.668 347.636 200.926 457.783 239.659 355.504 278.089 401.802 390.051 280.156 335.583 223.873 457.229 199.059 315.914 132.185 369.777 150.038 297.456 150.038 297.456"/>
  <polygon style="stroke: rgb(0, 0, 0); fill: rgb(148, 42, 42); stroke-linejoin: round; stroke-linecap: round; stroke-width: 11px;" points="248.082 65.059 248.082 65.059 242.333 12.709 286.21 21.787"/>
  <polygon style="stroke: rgb(0, 0, 0); stroke-linejoin: round; stroke-width: 11px; fill: rgb(148, 42, 42);" points="426.314 308.955 494.096 304.719 488.952 349.504"/>
  <polygon style="stroke: rgb(0, 0, 0); stroke-linejoin: round; stroke-width: 11px; fill: rgb(148, 42, 42);" points="94.361 343.452 54.115 428.482 28.091 381.882"/>
  <polygon style="stroke: rgb(0, 0, 0); stroke-linejoin: round; stroke-width: 11px; fill: rgb(148, 42, 42);" points="79.231 223.017 23.855 252.066 23.25 205.163"/>
</svg>