<svg aria-hidden="true" focusable="false" data-prefix="fas" data-icon="exit" class="svg-exit" role="img" xmlns="http://www.w3.org/2000/svg" viewBox="0 0 496 512"><path fill="currentColor" d="M199.484 20.440 C 198.608 21.365,195.464 26.518,191.786 33.053 C 184.538 45.931,67.546 253.211,38.658 304.356 C 14.340 347.409,15.974 344.191,17.215 346.592 C 18.574 349.219,11.483 349.002,95.826 349.002 L 171.506 349.002 173.044 348.180 C 174.055 347.640,174.863 346.832,175.403 345.821 L 176.225 344.283 176.225 312.886 L 176.225 281.488 175.403 279.950 C 173.747 276.850,173.470 276.796,158.076 276.588 C 142.191 276.373,141.191 276.116,141.201 272.242 C 141.207 270.330,140.852 270.981,170.380 218.693 C 202.160 162.417,200.321 165.285,203.693 166.726 C 206.214 167.805,202.906 162.258,235.757 220.480 C 264.076 270.671,263.875 270.301,263.880 272.274 C 263.890 276.016,262.717 276.335,248.094 276.573 C 233.932 276.804,233.488 276.897,231.856 279.950 L 231.034 281.488 231.034 312.886 L 231.034 344.283 231.856 345.821 C 232.396 346.832,233.204 347.640,234.215 348.180 L 235.753 349.002 308.711 349.110 C 385.497 349.224,384.757 349.234,386.642 347.968 C 389.597 345.982,389.195 344.610,381.840 331.579 C 378.911 326.388,340.089 257.623,295.568 178.766 C 251.048 99.909,212.925 32.377,210.850 28.694 C 205.021 18.348,202.912 16.816,199.484 20.440 "></path></svg>